<svg width="1600" height="1000" viewBox="0 0 1600 1000" fill="none" xmlns="http://www.w3.org/2000/svg">
  <defs>
    <linearGradient id="bg" x1="0" y1="0" x2="1600" y2="1000" gradientUnits="userSpaceOnUse">
      <stop stop-color="#F6F1E8"/>
      <stop offset="1" stop-color="#EEE8DD"/>
    </linearGradient>
    <linearGradient id="panel" x1="0" y1="0" x2="1" y2="1">
      <stop stop-color="white" stop-opacity="0.72"/>
      <stop offset="1" stop-color="white" stop-opacity="0.34"/>
    </linearGradient>
    <filter id="blur" x="-20%" y="-20%" width="140%" height="140%">
      <feGaussianBlur stdDeviation="18"/>
    </filter>
    <filter id="shadow" x="-20%" y="-20%" width="140%" height="140%">
      <feDropShadow dx="0" dy="18" stdDeviation="30" flood-color="#CFC5B8" flood-opacity="0.35"/>
    </filter>
  </defs>

  <rect width="1600" height="1000" fill="url(#bg)"/>
  <circle cx="220" cy="180" r="180" stroke="white" stroke-opacity="0.25" stroke-width="8"/>
  <circle cx="1450" cy="220" r="220" stroke="white" stroke-opacity="0.22" stroke-width="8"/>
  <circle cx="1490" cy="820" r="190" stroke="white" stroke-opacity="0.18" stroke-width="8"/>
  <path d="M0 460C240 360 460 360 690 490C920 620 1170 620 1600 430" stroke="#D8D0C5" stroke-opacity="0.35"/>
  <path d="M50 120C340 310 620 320 930 130C1150 -10 1390 -10 1600 150" stroke="white" stroke-opacity="0.18"/>

  <rect x="240" y="90" width="320" height="850" rx="28" fill="url(#panel)" stroke="white" stroke-opacity="0.5" filter="url(#shadow)"/>
  <rect x="590" y="90" width="780" height="850" rx="28" fill="url(#panel)" stroke="white" stroke-opacity="0.5" filter="url(#shadow)"/>

  <text x="270" y="140" fill="#2B3648" font-size="20" font-family="Arial, sans-serif" font-weight="700">Common Entrances</text>
  <rect x="270" y="160" width="260" height="52" rx="16" fill="white" fill-opacity="0.55" stroke="white" stroke-opacity="0.6"/>
  <g fill="#2D3647" font-family="Arial, sans-serif">
    <text x="290" y="192" font-size="16" font-weight="700">Pinned Docs</text>
    <text x="290" y="422" font-size="20" font-weight="700">Continue Browsing</text>
  </g>

  <g font-family="Arial, sans-serif">
    <rect x="270" y="450" width="260" height="78" rx="16" fill="white" fill-opacity="0.55" stroke="white" stroke-opacity="0.6"/>
    <rect x="288" y="470" width="22" height="22" rx="6" fill="#F38BA0"/>
    <text x="326" y="488" fill="#1F2937" font-size="16" font-weight="700">Research Notes</text>
    <text x="326" y="511" fill="#617089" font-size="14">notes.example</text>
    <rect x="473" y="468" width="36" height="36" rx="12" fill="white" fill-opacity="0.7"/>
    <text x="483" y="490" fill="#7A8498" font-size="18">+</text>

    <rect x="270" y="542" width="260" height="78" rx="16" fill="white" fill-opacity="0.55" stroke="white" stroke-opacity="0.6"/>
    <rect x="288" y="562" width="22" height="22" rx="6" fill="#6EA8FE"/>
    <text x="326" y="580" fill="#1F2937" font-size="16" font-weight="700">Course Hub</text>
    <text x="326" y="603" fill="#617089" font-size="14">courses.example</text>
    <rect x="473" y="560" width="36" height="36" rx="12" fill="white" fill-opacity="0.7"/>
    <text x="483" y="582" fill="#7A8498" font-size="18">+</text>

    <rect x="270" y="634" width="260" height="78" rx="16" fill="white" fill-opacity="0.55" stroke="white" stroke-opacity="0.6"/>
    <rect x="288" y="654" width="22" height="22" rx="6" fill="#78C6A3"/>
    <text x="326" y="672" fill="#1F2937" font-size="16" font-weight="700">Design Board</text>
    <text x="326" y="695" fill="#617089" font-size="14">board.example</text>
    <rect x="473" y="652" width="36" height="36" rx="12" fill="white" fill-opacity="0.7"/>
    <text x="483" y="674" fill="#7A8498" font-size="18">+</text>
  </g>

  <rect x="620" y="120" width="720" height="48" rx="16" fill="white" fill-opacity="0.5" stroke="white" stroke-opacity="0.6"/>
  <text x="640" y="150" fill="#94A0B6" font-size="16" font-family="Arial, sans-serif">Search bookmarks</text>

  <g font-family="Arial, sans-serif">
    <rect x="635" y="190" width="690" height="250" rx="22" fill="white" fill-opacity="0.35" stroke="white" stroke-opacity="0.55"/>
    <text x="655" y="225" fill="#263245" font-size="18" font-weight="700">AI Tools</text>
    <rect x="730" y="203" width="72" height="28" rx="14" fill="#E7EAF1"/>
    <text x="746" y="222" fill="#6A778F" font-size="14" font-weight="700">14 items</text>

    <rect x="655" y="250" width="220" height="74" rx="16" fill="white" fill-opacity="0.55"/>
    <rect x="891" y="250" width="220" height="74" rx="16" fill="white" fill-opacity="0.55"/>
    <rect x="1127" y="250" width="178" height="74" rx="16" fill="white" fill-opacity="0.55"/>
    <text x="680" y="294" fill="#1F2937" font-size="16" font-weight="700">Gemini</text>
    <text x="916" y="294" fill="#1F2937" font-size="16" font-weight="700">ChatGPT</text>
    <text x="1152" y="294" fill="#1F2937" font-size="16" font-weight="700">Claude</text>

    <rect x="655" y="340" width="220" height="74" rx="16" fill="white" fill-opacity="0.55"/>
    <rect x="891" y="340" width="220" height="74" rx="16" fill="white" fill-opacity="0.55"/>
    <rect x="1127" y="340" width="178" height="74" rx="16" fill="white" fill-opacity="0.55"/>
    <text x="680" y="384" fill="#1F2937" font-size="16" font-weight="700">NotebookLM</text>
    <text x="916" y="384" fill="#1F2937" font-size="16" font-weight="700">AI Studio</text>
    <text x="1152" y="384" fill="#1F2937" font-size="16" font-weight="700">Perplexity</text>

    <rect x="635" y="460" width="690" height="150" rx="22" fill="white" fill-opacity="0.35" stroke="white" stroke-opacity="0.55"/>
    <text x="655" y="495" fill="#263245" font-size="18" font-weight="700">Communication</text>
    <rect x="795" y="473" width="72" height="28" rx="14" fill="#E7EAF1"/>
    <text x="811" y="492" fill="#6A778F" font-size="14" font-weight="700">3 items</text>
    <rect x="655" y="520" width="220" height="66" rx="16" fill="white" fill-opacity="0.55"/>
    <rect x="891" y="520" width="220" height="66" rx="16" fill="white" fill-opacity="0.55"/>
    <rect x="1127" y="520" width="178" height="66" rx="16" fill="white" fill-opacity="0.55"/>
    <text x="680" y="560" fill="#1F2937" font-size="16" font-weight="700">Mail</text>
    <text x="916" y="560" fill="#1F2937" font-size="16" font-weight="700">Calendar</text>
    <text x="1152" y="560" fill="#1F2937" font-size="16" font-weight="700">Team Docs</text>

    <rect x="635" y="630" width="690" height="210" rx="22" fill="white" fill-opacity="0.35" stroke="white" stroke-opacity="0.55"/>
    <text x="655" y="665" fill="#263245" font-size="18" font-weight="700">Learning</text>
    <rect x="740" y="643" width="78" height="28" rx="14" fill="#E7EAF1"/>
    <text x="756" y="662" fill="#6A778F" font-size="14" font-weight="700">25 items</text>
    <rect x="655" y="690" width="220" height="66" rx="16" fill="white" fill-opacity="0.55"/>
    <rect x="891" y="690" width="220" height="66" rx="16" fill="white" fill-opacity="0.55"/>
    <rect x="1127" y="690" width="178" height="66" rx="16" fill="white" fill-opacity="0.55"/>
    <text x="680" y="730" fill="#1F2937" font-size="16" font-weight="700">Algorithms</text>
    <text x="916" y="730" fill="#1F2937" font-size="16" font-weight="700">Statistics</text>
    <text x="1152" y="730" fill="#1F2937" font-size="16" font-weight="700">References</text>
  </g>

  <circle cx="1450" cy="160" r="28" fill="white" fill-opacity="0.72" stroke="white" stroke-opacity="0.7"/>
  <circle cx="1450" cy="240" r="28" fill="white" fill-opacity="0.72" stroke="white" stroke-opacity="0.7"/>
  <path d="M1442 160H1458M1450 152V168" stroke="#5D6780" stroke-width="2" stroke-linecap="round"/>
  <path d="M1442 236H1458M1442 244H1458M1446 228H1454" stroke="#5D6780" stroke-width="2" stroke-linecap="round"/>

  <rect x="95" y="95" width="1410" height="810" rx="34" fill="white" fill-opacity="0.08" filter="url(#blur)"/>
</svg>
